<svg width="27" height="30" viewBox="0 0 27 30" fill="none" xmlns="http://www.w3.org/2000/svg">
<path d="M0 11.6478C0 10.7048 0.443412 9.81662 1.19716 9.24991L11.6972 1.35547C12.765 0.552626 14.235 0.552625 15.3028 1.35547L25.8028 9.24991C26.5566 9.81662 27 10.7048 27 11.6478V26.1C27 26.8691 26.6839 27.6068 26.1213 28.1506C25.5587 28.6945 24.7957 29 24 29H3C2.20435 29 1.44129 28.6945 0.87868 28.1506C0.31607 27.6068 0 26.8691 0 26.1V11.6478Z" fill="#7649EA"/>
<path d="M9 30V24C9 22.3431 10.3431 21 12 21H15C16.6569 21 18 22.3431 18 24V30" fill="white"/>
</svg>